<?xml version="1.0" encoding="utf-8"?>
<!-- Generator: Adobe Illustrator 19.0.0, SVG Export Plug-In . SVG Version: 6.00 Build 0)  -->
<svg version="1.1" id="Layer_1" xmlns="http://www.w3.org/2000/svg" xmlns:xlink="http://www.w3.org/1999/xlink" x="0px" y="0px"
	 viewBox="0 0 500 500" style="enable-background:new 0 0 500 500;" xml:space="preserve">
<style type="text/css">
	.st0{fill:#5EA8E0;}
	.st1{fill:#2D71C1;}
	.st2{fill:#A6D71C;}
	.st3{fill:#FAB812;}
	.st4{fill:#F46855;}
	.st5{fill:#EA3A1E;}
	.st6{fill:#609F20;}
</style>
<g id="XMLID_1_">
	<path id="XMLID_5_" class="st0" d="M114.3,267.5h-15v-39h15c11.2,0,20.3,8.7,20.3,19.5C134.6,258.8,125.5,267.5,114.3,267.5
		 M164.3,234.7c-6.1-21.1-26.2-36.6-50.1-36.6H67.5V298h46.8c11.9,0,22.8-3.9,31.5-10.3c-1-3.8-1.6-7.8-1.6-11.9v-2.4
		C144.2,257.5,152.1,243.5,164.3,234.7"/>
	<path id="XMLID_6_" class="st1" d="M166.3,248c0-4.6-0.7-9.1-1.9-13.3c-12.2,8.9-20.2,22.9-20.2,38.6v2.4c0,4.1,0.6,8.1,1.6,11.9
		C158.2,278.5,166.3,264.2,166.3,248"/>
	<path id="XMLID_9_" class="st2" d="M213.4,275.7c0,9.9-8.4,18-18.8,18c-10.3,0-18.8-8.1-18.8-18v-2.4c0-9.9,8.4-18,18.8-18
		c10.3,0,18.8,8.1,18.8,18V275.7z M211.8,227.8c-0.3-0.1-0.6-0.2-0.9-0.3l-0.3-0.1c-0.2-0.1-0.5-0.2-0.7-0.2
		c-4.8-1.5-10-2.3-15.3-2.3c-11.4,0-21.9,3.7-30.3,9.8c1.2,4.2,1.9,8.7,1.9,13.3c0,16.1-8.1,30.5-20.5,39.6
		c5.6,20.9,25.3,36.5,48.9,36.5c11,0,21.2-3.5,29.5-9.2c4.8,4.1,11.5,6.8,20.9,8.2v-46.4v-1v-1.3v-1c0-0.6-0.1-1.2-0.1-1.8l0-0.2
		v-0.1l0-0.3C225.9,265.1,212,248,211.8,227.8"/>
	<path id="XMLID_10_" class="st3" d="M306.7,208.3L306.7,208.3L306.7,208.3l0.7-0.5v-31.9h-31.7v51.5c0,8.5-7.2,15.4-16.1,15.4
		c-8.9,0-16.1-6.9-16.1-15.4v-51.5h-31.7v51.5v0.1v0.1l0,0.3c18.6,6.5,32.2,23.3,33.2,43.1c0.3,0.1,0.6,0.2,0.9,0.3l0.3,0.1
		c0.2,0.1,0.4,0.1,0.7,0.2c4.1,1.1,8.3,1.7,12.7,1.7c10.9,0,21-3.6,29-9.5c0.3-0.2,0.6-0.5,0.9-0.7v-21.5
		C289.6,227.9,296.3,215.9,306.7,208.3"/>
	<path id="XMLID_11_" class="st4" d="M388.9,199.6c-10.6,0-20.3,3.6-27.8,9.7c-7.6-6-17.3-9.7-27.8-9.7c-9.3,0-17.9,2.8-24.9,7.6
		c-0.3,0.2-0.6,0.4-0.9,0.6v19.6c0,14.1-6.7,26.7-17.2,35.1l0,0l-0.6,0.5v35h31.6v-56.5c0-6.4,5.4-11.5,12-11.5
		c6.6,0,12,5.2,12,11.5V298h31.6v-56.5c0-6.4,5.4-11.5,12-11.5c6.6,0,12,5.2,12,11.5V298h31.6v-56.5
		C432.5,218.4,412.9,199.6,388.9,199.6"/>
	<path id="XMLID_12_" class="st5" d="M290.2,262.5c10.5-8.4,17.2-21,17.2-35.1v-19.6l-0.6,0.4l-0.1,0l0,0
		c-10.4,7.7-17.1,19.7-17.1,33.2V263L290.2,262.5L290.2,262.5"/>
	<path id="XMLID_13_" class="st6" d="M211.8,227.8C212,248,225.9,265.1,245,271C244,251.1,230.5,234.3,211.8,227.8"/>
</g>
</svg>
