<svg xmlns="http://www.w3.org/2000/svg" width="200" height="40" viewBox="0 0 200 40"><defs><style>.a{fill:#e15226;}.b{fill:#4c4946;}.c{fill:#187f8a;}</style></defs><path class="a" d="M570.356,476.5c1.99.359,11.389,1.555,18.027-6.061l-.686-1.052c-.277.209-.518.383-.709.525-9.973,7-16.892,2.4-17.466,2a13.256,13.256,0,0,1-5.952-9.863c-.075-1.218-.414-11.964,10.534-14.912a9.323,9.323,0,0,1,6.814.82,18.4,18.4,0,0,1-5.606,5.18l-.448-3.54-6.992,10.251,11.575-3.178-2.967-1.725.073-.055a24.907,24.907,0,0,1,7.486-3.766,15.1,15.1,0,0,1,1.808,7.216l.013.448-17.02,4.535a6.794,6.794,0,0,0,.378,1.6h0c1.449,3.889,6.2,4.618,7.961,4.618a14.775,14.775,0,0,0,2.786-.387c.215-.056.43-.11.644-.181,3.305-.962,9.2-3.639,10.011-10.632h-.005a14.91,14.91,0,0,0-.745-6.547c-2.264-5.717-7.9-7.842-12.745-7.842a17.745,17.745,0,0,0-4.665.625c-9.769,2.635-15.665,12-13.419,21.322A14.036,14.036,0,0,0,570.356,476.5Z" transform="translate(-484.117 -442.222)"/><path class="b" d="M937.8,494.648a6.478,6.478,0,0,1,2.136-4.959q2.136-1.983,6.491-1.984a20.124,20.124,0,0,1,4.65.635v-1.2a3.368,3.368,0,0,0-.922-2.606,4.519,4.519,0,0,0-3.057-.838,12.464,12.464,0,0,0-4.022.764,4.065,4.065,0,0,1-1.381.271,2.312,2.312,0,0,1-1.421-.432,2.2,2.2,0,0,1-1.05-2.071,2.68,2.68,0,0,1,1.843-2.624,15.221,15.221,0,0,1,6.153-1.079q9.261,0,9.258,8.746v10.56a2.292,2.292,0,0,1-1,2.024,15.078,15.078,0,0,1-8.837,2.372q-4.313,0-6.574-2.152A7.176,7.176,0,0,1,937.8,494.648Zm5.443-.214a2.516,2.516,0,0,0,1.007,2.133,4.522,4.522,0,0,0,2.762.754,7.244,7.244,0,0,0,4.064-1.125V492.32a13.764,13.764,0,0,0-4.191-.472C943.985,491.848,943.245,493.6,943.245,494.434Z" transform="translate(-794.951 -470.596)"/><path class="b" d="M783.582,478.587a9.021,9.021,0,0,0-5.889,1.759,9.021,9.021,0,0,0-5.889-1.759q-8.712,0-8.712,9.439V499.19a2.94,2.94,0,0,0,.817,2.11,2.68,2.68,0,0,0,2.031.866,2.606,2.606,0,0,0,1.928-.877,2.914,2.914,0,0,0,.835-2.076V488.257c0-2.476,1.04-3.759,3.1-3.871,1.923.105,2.942,1.24,3.076,3.4,0,.081-.008.152-.008.238V499.19a2.94,2.94,0,0,0,.817,2.11,2.624,2.624,0,0,0,1.558.818,2.281,2.281,0,0,0,.422.047c.011,0,.018-.008.026-.008s.016.008.021.008a2.435,2.435,0,0,0,.427-.047,2.642,2.642,0,0,0,1.558-.818,2.942,2.942,0,0,0,.817-2.11V488.026c0-.085-.008-.157-.008-.238.131-2.164,1.152-3.3,3.076-3.4,2.056.112,3.1,1.4,3.1,3.871v10.956a2.915,2.915,0,0,0,.838,2.076,2.6,2.6,0,0,0,1.926.877,2.68,2.68,0,0,0,2.031-.866,2.943,2.943,0,0,0,.817-2.11V488.026Q792.29,478.589,783.582,478.587Z" transform="translate(-651.734 -470.643)"/><path class="b" d="M1164.408,447.862a8.139,8.139,0,0,0-6.243-2.369c-3.318,0-4.8,1.217-5.274,1.669v-6.054a2.8,2.8,0,0,0-.814-2.032,2.806,2.806,0,0,0-3.983.007,2.8,2.8,0,0,0-.814,2.044v24.4a2.8,2.8,0,0,0,.835,2.024,2.723,2.723,0,0,0,2.012.855,2.613,2.613,0,0,0,1.967-.834,2.847,2.847,0,0,0,.8-2.037v-10.4a4.063,4.063,0,0,1,8.126,0V465.45a2.986,2.986,0,0,0,.8,2.1,2.594,2.594,0,0,0,1.969.852,2.683,2.683,0,0,0,2.053-.859,3.019,3.019,0,0,0,.793-2.116V454.665Q1166.628,450.226,1164.408,447.862Z" transform="translate(-966.626 -437.55)"/><path class="b" d="M1067.76,473.9h-2.81v-.024c-2.058-.11-3.1-1.354-3.1-3.764v-6.991h5.93a2.776,2.776,0,0,0,2.015-.838,2.614,2.614,0,0,0,.855-1.929,2.705,2.705,0,0,0-.843-2.028,2.814,2.814,0,0,0-2.051-.818h-5.908V454.65a2.778,2.778,0,0,0-.838-2.018,2.611,2.611,0,0,0-1.926-.85,2.727,2.727,0,0,0-2.031.834,2.834,2.834,0,0,0-.82,2.053v15.665q0,9.109,8.591,9.167v.008h2.953a2.775,2.775,0,0,0,2.015-.842,2.608,2.608,0,0,0,.855-1.925,2.709,2.709,0,0,0-.843-2.031A2.806,2.806,0,0,0,1067.76,473.9Z" transform="translate(-891.936 -448.654)"/><path class="c" d="M499.365,434.359a3.035,3.035,0,0,0-3.106,2.96v24.9a3.11,3.11,0,0,0,6.213,0v-24.9A3.036,3.036,0,0,0,499.365,434.359Z" transform="translate(-433.101 -434.359)"/><path class="c" d="M295.388,472.127A12.1,12.1,0,0,0,283.3,484.208a6.159,6.159,0,0,1-11.51,3.056,10.482,10.482,0,0,1-2.942,5.727,11.193,11.193,0,0,0,8.287,3.3,12.1,12.1,0,0,0,12.083-12.082h0a6.183,6.183,0,1,1,.9,3.2,11.379,11.379,0,0,1-3.071,5.539,11.5,11.5,0,0,0,8.331,3.339,12.082,12.082,0,1,0,0-24.163Z" transform="translate(-246.813 -465.046)"/><path class="c" d="M170.3,484.208a6.16,6.16,0,0,1,11.512-3.052,10.472,10.472,0,0,1,2.938-5.733,11.208,11.208,0,0,0-8.285-3.3,12.1,12.1,0,0,0-12.081,12.081,6.187,6.187,0,1,1-.909-3.2,11.416,11.416,0,0,1,3.073-5.538,11.5,11.5,0,0,0-8.329-3.339,12.1,12.1,0,0,0-12.083,12.081v17.507a2.958,2.958,0,1,0,5.916,0V494.58A12.057,12.057,0,0,0,170.3,484.208Z" transform="translate(-146.138 -464.677)"/></svg>